<?xml version="1.0" standalone="no"?>
<!DOCTYPE svg PUBLIC "-//W3C//DTD SVG 20010904//EN"
 "http://www.w3.org/TR/2001/REC-SVG-20010904/DTD/svg10.dtd">
<svg version="1.0" xmlns="http://www.w3.org/2000/svg"
 width="512.000000pt" height="512.000000pt" viewBox="0 0 512.000000 512.000000"
 preserveAspectRatio="xMidYMid meet">
<metadata>
Created by potrace 1.14, written by Peter Selinger 2001-2017
</metadata>
<g transform="translate(0.000000,512.000000) scale(0.100000,-0.100000)"
fill="#000000" stroke="none">
<path d="M3229 4536 c-2 -3 -22 -7 -44 -10 -61 -8 -114 -21 -180 -45 -33 -11
-64 -22 -70 -24 -5 -1 -12 -4 -15 -7 -3 -3 -23 -14 -45 -25 -44 -21 -116 -68
-154 -100 -39 -32 -162 -155 -156 -155 3 0 -4 -11 -17 -24 -13 -13 -33 -37
-45 -52 -41 -53 -118 -149 -130 -162 -7 -7 -13 -18 -13 -23 0 -5 -7 -9 -15 -9
-8 0 -15 -6 -15 -13 0 -7 -10 -22 -22 -34 -13 -11 -35 -33 -49 -49 -34 -38
-94 -91 -174 -156 -36 -28 -65 -56 -65 -61 0 -6 -3 -8 -6 -4 -3 3 -16 -4 -28
-16 -12 -12 -44 -40 -70 -62 -87 -72 -129 -109 -188 -166 -32 -31 -60 -54 -63
-51 -3 3 -5 0 -5 -6 0 -6 -18 -29 -40 -51 -22 -22 -40 -43 -40 -45 0 -3 -11
-18 -25 -33 -36 -42 -88 -114 -105 -148 -8 -16 -18 -32 -21 -35 -11 -9 -59
-108 -80 -167 -11 -32 -23 -65 -26 -73 -3 -8 -7 -19 -8 -25 -2 -5 -8 -28 -13
-50 -6 -22 -14 -56 -17 -75 -3 -19 -8 -48 -11 -65 -3 -16 -7 -58 -9 -93 -2
-47 -8 -67 -22 -77 -10 -8 -22 -15 -26 -15 -5 0 -46 -27 -93 -60 -46 -33 -87
-60 -90 -60 -2 0 -17 -11 -32 -25 -15 -14 -32 -25 -39 -25 -6 0 -13 -4 -15 -8
-2 -5 -30 -28 -63 -52 -33 -24 -65 -49 -71 -54 -6 -6 -33 -29 -60 -51 -139
-116 -357 -338 -370 -377 -3 -10 -10 -18 -15 -18 -5 0 -9 -7 -9 -15 0 -8 -4
-15 -10 -15 -5 0 -10 -7 -10 -15 0 -8 -5 -15 -11 -15 -5 0 -7 -4 -4 -10 3 -5
1 -10 -5 -10 -6 0 -8 -4 -5 -10 3 -5 2 -10 -3 -10 -5 0 -13 -10 -17 -22 -4
-13 -8 -25 -10 -28 -1 -3 -11 -25 -23 -50 -55 -118 -49 -221 19 -327 7 -13 19
-23 25 -23 7 0 14 -7 17 -15 11 -27 136 -66 218 -67 39 -1 75 2 225 16 44 4
64 -3 68 -25 19 -93 78 -169 150 -194 46 -16 165 -8 201 13 6 4 16 7 23 8 19
3 151 72 187 98 17 11 34 21 38 21 5 0 15 9 23 19 8 11 14 16 14 10 0 -5 3 -5
8 1 4 6 45 39 92 74 47 35 117 97 156 137 39 41 74 74 78 74 4 0 12 -5 19 -10
7 -6 26 -22 42 -36 17 -14 51 -37 77 -52 27 -15 48 -31 48 -35 0 -5 5 -5 10
-2 6 3 10 1 10 -4 0 -6 3 -10 8 -9 4 1 27 -9 52 -22 25 -13 47 -25 50 -25 36
-10 39 -17 22 -43 -9 -15 -21 -30 -27 -34 -5 -4 -7 -8 -2 -8 4 0 -4 -17 -17
-39 -31 -49 -49 -115 -38 -138 4 -10 8 -25 7 -33 -1 -8 7 -27 17 -41 15 -23
24 -26 70 -25 61 2 92 16 129 58 l26 30 13 -31 c7 -17 17 -31 22 -31 5 0 18
-10 27 -22 13 -15 31 -22 61 -24 49 -2 103 13 94 27 -3 5 2 9 10 9 9 0 16 7
16 15 0 7 6 18 13 22 6 4 13 17 15 28 7 44 9 111 3 120 -3 6 -7 19 -8 30 -2
11 -6 27 -10 35 -3 8 -7 17 -8 20 -5 19 -39 71 -67 101 -28 30 -101 71 -193
109 -113 45 -303 152 -356 200 -112 101 -269 275 -269 298 0 6 -3 12 -8 14 -8
3 -83 127 -87 143 -1 6 -11 31 -23 57 -25 56 -50 128 -56 162 -2 13 -10 34
-16 46 -8 15 -8 20 -1 16 8 -5 8 1 0 21 -17 44 -25 168 -20 291 1 42 72 114
146 148 47 23 58 24 190 19 77 -3 160 -7 185 -9 40 -2 81 2 163 18 45 8 70 18
108 42 20 13 40 20 43 17 3 -4 6 -1 6 5 0 7 4 12 10 12 19 0 110 85 110 102 0
6 3 8 7 5 9 -10 52 84 57 127 4 35 -12 66 -35 66 -5 0 -33 -23 -62 -51 -95
-92 -166 -139 -219 -145 -10 -1 -19 -3 -20 -4 -8 -7 -98 -5 -98 2 0 5 -8 4
-19 -1 -10 -6 -21 -7 -25 -4 -4 4 -19 8 -34 10 -15 2 -59 9 -99 16 -107 20
-235 13 -307 -17 l-32 -13 36 67 c67 127 80 150 91 150 6 0 8 4 5 8 -3 5 4 15
15 22 10 8 19 19 19 24 0 15 161 180 245 251 26 22 59 51 75 65 61 55 123 106
141 116 11 5 16 13 13 17 -4 4 0 7 9 7 9 0 20 6 24 13 4 6 28 28 53 48 74 60
270 260 270 276 0 2 6 10 13 17 7 8 29 33 48 56 18 24 42 50 52 59 9 8 17 19
17 23 0 14 136 159 190 203 96 78 253 143 383 160 63 9 217 12 217 5 0 -3 10
-6 23 -7 75 -2 204 -36 219 -58 4 -5 8 -6 8 -2 0 4 33 -9 72 -30 168 -88 346
-250 493 -448 33 -44 63 -82 68 -83 4 -2 5 -8 1 -13 -3 -5 0 -9 5 -9 6 0 11
-7 11 -15 0 -8 5 -15 10 -15 6 0 10 -4 10 -10 0 -5 17 -38 38 -72 44 -74 94
-177 129 -268 33 -87 84 -248 89 -285 3 -16 7 -37 10 -45 33 -89 52 -478 30
-585 -4 -16 -11 -55 -17 -85 -27 -133 -142 -419 -191 -474 -10 -11 -18 -26
-18 -33 0 -7 -4 -13 -10 -13 -5 0 -10 -5 -10 -10 0 -9 -35 -65 -50 -80 -3 -3
-24 -30 -46 -60 -74 -99 -188 -208 -331 -316 -15 -12 -44 -29 -63 -39 -19 -10
-38 -22 -41 -27 -3 -5 -10 -10 -15 -10 -5 0 -27 -9 -49 -21 -22 -11 -40 -19
-40 -17 0 1 -18 -5 -40 -15 -22 -9 -47 -18 -55 -20 -8 -2 -40 -10 -71 -19 -66
-19 -79 -22 -149 -31 -29 -4 -62 -9 -74 -11 -12 -2 -39 -6 -61 -9 -48 -7 -79
-13 -82 -15 -4 -4 -14 -5 -73 -14 -30 -4 -62 -10 -70 -12 -8 -2 -35 -8 -59
-14 -24 -6 -50 -9 -56 -6 -7 2 -17 0 -21 -4 -5 -5 -25 -12 -44 -15 -93 -15
-128 -39 -73 -50 15 -4 35 -9 43 -12 8 -3 21 -7 29 -9 7 -1 34 -7 60 -13 122
-28 169 -34 251 -34 64 0 175 9 175 13 0 3 40 9 80 12 22 2 45 7 51 11 19 11
22 -3 7 -33 -18 -36 -25 -73 -24 -125 1 -60 3 -75 13 -75 4 0 8 -6 8 -13 0
-13 40 -43 53 -39 4 1 7 -2 7 -7 0 -10 61 -4 69 7 3 4 12 8 20 10 17 4 64 50
80 80 10 19 38 34 28 15 -2 -5 9 -21 25 -36 15 -15 28 -24 28 -20 0 4 4 2 8
-5 10 -14 102 -24 102 -11 0 5 6 9 13 9 20 0 67 60 68 89 3 47 -3 96 -12 106
-5 5 -9 17 -9 27 0 10 -4 18 -10 18 -5 0 -10 6 -10 13 0 7 -9 23 -20 35 -12
12 -18 22 -14 22 4 0 -4 13 -19 28 l-27 28 58 29 c70 35 218 143 291 213 30
29 59 52 65 52 5 0 7 2 4 5 -3 3 19 31 48 63 72 77 72 77 130 157 78 109 172
276 219 390 9 22 20 49 25 60 11 26 34 99 31 103 -1 1 6 16 14 32 8 16 15 31
14 32 -1 2 3 26 9 53 17 72 22 102 29 175 12 116 6 361 -12 455 -3 17 -8 46
-11 65 -4 19 -8 44 -10 56 -1 11 -8 40 -15 65 -7 24 -12 48 -10 53 1 4 -4 14
-10 22 -6 8 -8 14 -4 14 4 0 2 7 -5 15 -7 8 -10 15 -6 15 3 0 0 16 -8 35 -8
19 -13 35 -11 35 2 0 -4 20 -15 45 -11 25 -19 46 -19 48 2 9 -61 155 -88 205
-13 23 -20 42 -16 42 4 0 -1 7 -11 15 -11 8 -16 15 -12 15 4 0 -2 13 -13 29
-12 16 -21 32 -21 36 0 3 -12 22 -26 41 -15 19 -22 34 -18 34 5 0 1 5 -8 11
-10 5 -18 15 -18 20 0 13 -98 146 -164 223 -83 97 -208 218 -281 271 -22 17
-42 33 -45 36 -17 20 -270 153 -270 142 0 -3 -6 -1 -12 5 -7 5 -29 13 -48 18
-19 4 -39 9 -45 10 -41 11 -63 16 -85 21 -33 6 -315 15 -321 9z m-1939 -2468
c0 -12 4 -35 9 -52 33 -111 54 -175 66 -201 7 -16 15 -37 17 -45 2 -8 6 -17 9
-20 3 -3 23 -39 43 -80 21 -41 41 -77 45 -80 3 -3 19 -24 34 -48 15 -23 52
-71 82 -107 30 -35 55 -66 55 -69 0 -2 -33 -30 -72 -62 -40 -32 -85 -71 -100
-87 -16 -16 -28 -26 -28 -23 0 3 -17 -11 -38 -31 -79 -78 -224 -188 -293 -221
-45 -22 -89 -29 -89 -14 -7 138 -58 228 -144 252 -42 12 -161 9 -226 -5 -26
-6 -118 -6 -159 -1 -43 5 -55 40 -33 96 3 8 6 17 7 20 8 24 21 49 37 73 11 15
16 27 11 27 -4 0 -3 4 4 8 6 4 13 14 15 22 2 8 12 24 23 36 11 12 33 41 49 63
17 23 33 41 38 41 4 0 8 4 8 10 0 5 12 22 28 38 15 16 41 44 58 63 57 63 190
182 259 233 22 16 45 34 52 40 16 15 36 29 55 41 9 6 49 33 88 62 40 29 77 50
81 47 5 -3 9 -15 9 -26z"/>
<path d="M3963 3715 c-15 -10 -24 -12 -28 -5 -4 7 -17 0 -33 -17 -14 -15 -30
-27 -35 -25 -5 1 -6 -2 -3 -7 3 -5 -1 -14 -9 -21 -12 -10 -13 -16 -4 -26 9
-11 8 -14 -1 -14 -10 0 -10 -3 0 -15 9 -11 9 -15 1 -15 -7 0 -9 -5 -4 -12 4
-7 8 -20 10 -28 1 -8 10 -22 20 -30 11 -8 22 -23 26 -32 3 -10 12 -18 19 -18
9 0 8 3 -2 10 -8 5 -11 10 -7 10 5 0 21 -9 37 -20 15 -11 30 -16 34 -13 4 4
16 8 28 10 12 2 26 9 30 16 6 9 8 9 8 -1 0 -8 9 -4 24 10 13 13 22 26 20 29
-2 4 3 10 11 13 8 3 15 9 14 13 -1 4 0 10 1 13 7 16 4 70 -3 70 -5 0 -3 8 4
18 7 9 9 14 4 9 -4 -4 -20 11 -35 33 -15 22 -29 37 -33 34 -4 -4 -13 -1 -22 6
-8 7 -15 9 -15 4 0 -5 -5 -2 -10 6 -9 13 -10 13 -10 0 0 -11 -2 -12 -8 -3 -6
10 -13 9 -29 -2z"/>
<path d="M2878 3617 c-14 -6 -32 -21 -39 -33 -6 -13 -16 -21 -21 -18 -7 5 -12
-10 -9 -30 1 -4 -4 -14 -10 -22 -9 -11 -8 -14 2 -14 9 0 10 -3 4 -8 -14 -10
-17 -32 -4 -32 6 0 9 -7 5 -15 -3 -8 -1 -15 5 -15 6 0 7 -4 4 -10 -3 -5 -1
-10 4 -10 6 0 11 -7 11 -16 0 -8 5 -12 10 -9 6 3 10 1 10 -4 0 -6 7 -11 15
-11 8 0 15 -5 15 -12 0 -6 2 -9 6 -6 3 3 21 2 40 -2 20 -5 34 -4 34 2 0 5 5 6
10 3 6 -3 10 -1 10 6 0 8 4 8 16 -1 13 -11 16 -10 21 8 3 12 14 24 24 27 11 4
17 10 14 15 -3 5 1 15 9 23 11 11 12 17 3 26 -8 8 -8 11 0 11 7 0 10 10 8 23
-13 65 -18 77 -32 77 -9 0 -14 3 -10 6 9 9 -19 34 -37 34 -9 0 -16 4 -16 8 0
11 -52 8 -70 -3 -9 -5 -11 -4 -6 3 4 7 6 12 4 11 -2 -1 -15 -6 -30 -12z"/>
<path d="M3472 3436 c-30 -16 -82 -80 -87 -108 -6 -31 3 -58 21 -58 8 0 14 -4
14 -10 0 -13 111 -13 146 0 31 12 64 46 64 66 0 16 -58 84 -72 84 -5 0 -22 9
-37 19 -22 16 -30 17 -49 7z"/>
</g>
</svg>
