<?xml version="1.0" encoding="UTF-8" standalone="no"?>
<!DOCTYPE svg PUBLIC "-//W3C//DTD SVG 1.1//EN" "http://www.w3.org/Graphics/SVG/1.1/DTD/svg11.dtd">
<svg width="144.00" height="144.00" viewBox="0.00 0.00 600.00 600.00" xmlns="http://www.w3.org/2000/svg" xmlns:xlink="http://www.w3.org/1999/xlink">
<g stroke-linecap="round" transform="translate(-100.00, 0.00)" id="レイヤー_5">
<path d="M396.29,396.37 C396.29,396.37 404.97,397.07 404.97,397.07" fill="none" stroke="rgb(102, 55, 61)" stroke-width="27.95" stroke-opacity="1.00" stroke-linejoin="round"/>
<path d="M391.15,481.30 C390.85,481.56 390.57,481.69 390.32,481.70 C389.21,481.72 371.90,477.40 369.34,476.47 C362.21,473.83 353.29,469.67 342.80,464.34 C336.19,460.88 325.44,453.58 319.88,449.10 C315.16,445.27 305.26,435.62 299.46,429.18 C294.87,424.02 286.26,412.71 282.22,406.28 C278.75,400.72 272.37,388.04 269.56,380.91 C267.16,374.78 263.30,361.49 261.84,353.88 C260.62,347.45 259.22,333.68 259.16,326.33 C259.13,320.04 260.31,306.94 261.64,299.85 C262.74,294.04 266.24,281.68 268.64,275.39 C270.75,269.91 276.29,258.75 279.96,252.86 C282.62,248.59 290.08,238.45 294.86,232.78 C302.60,223.75 321.17,206.94 333.80,196.16 C339.54,191.37 351.78,181.15 358.30,175.71 C366.43,168.64 373.84,161.59 380.39,154.10 C389.72,142.84 413.75,113.68 417.63,109.76 C421.63,105.81 431.36,98.05 436.12,95.07 C441.29,91.87 452.45,86.70 458.68,84.68 C465.16,82.60 478.16,80.13 485.14,79.66 C491.91,79.23 506.72,79.89 513.49,80.95 C520.47,82.07 532.90,85.81 539.16,88.51 C545.04,91.06 555.94,97.13 561.30,100.72 C564.44,102.84 575.97,111.80 580.88,116.53 C588.96,124.43 596.64,132.56 602.38,139.41 C606.36,144.24 616.22,157.99 620.46,164.57 C626.04,173.62 631.48,183.57 634.58,189.66 C636.51,193.59 643.92,211.32 645.38,215.49 C647.63,222.12 650.96,232.93 653.33,242.14 C655.45,251.27 657.77,264.76 658.32,269.39 C658.85,274.01 659.97,295.43 659.93,299.36 C659.89,302.78 658.38,320.68 656.89,328.28 C655.41,335.74 651.28,349.38 648.55,356.71 C646.30,362.55 641.09,374.28 638.16,380.05 C635.15,385.79 628.59,396.83 625.09,402.07 C621.55,407.23 613.98,417.08 610.00,421.73 C605.64,426.69 595.00,437.59 589.53,442.37 C584.03,447.15 572.58,455.51 566.80,458.99 C561.03,462.45 551.35,467.13 544.63,469.92 C540.86,471.46 523.48,476.97 516.57,478.21 C515.47,478.40 494.62,481.42 487.93,482.50 C482.07,483.37 471.80,483.95 461.69,484.10 C453.98,484.08 432.86,483.80 432.66,483.86 C432.46,483.92 432.26,484.14 432.06,484.50" fill="none" stroke="rgb(102, 55, 61)" stroke-width="27.95" stroke-opacity="1.00" stroke-linejoin="round"/>
<path d="M567.05,180.16" fill="none" stroke="rgb(102, 55, 61)" stroke-width="44.71" stroke-opacity="1.00" stroke-linejoin="round"/>
<path d="M444.08,191.34" fill="none" stroke="rgb(102, 55, 61)" stroke-width="44.71" stroke-opacity="1.00" stroke-linejoin="round"/>
<path d="M509.91,200.04 C509.62,200.86 509.30,201.51 508.68,202.41 C507.76,203.73 502.51,210.75 502.01,211.75 C504.56,212.62 511.53,212.26 513.02,212.10 C516.26,211.74 518.73,211.17 519.63,210.93 C519.07,209.97 512.30,205.72 511.40,205.15 C510.85,204.79 510.29,204.43 509.74,204.06" fill="none" stroke="rgb(102, 55, 61)" stroke-width="44.71" stroke-opacity="1.00" stroke-linejoin="round"/>
<path d="M282.45,352.20 C282.45,352.20 281.95,352.20 281.95,352.20" fill="none" stroke="rgb(102, 55, 61)" stroke-width="44.71" stroke-opacity="1.00" stroke-linejoin="round"/>
<path d="M260.28,330.78 C259.06,331.33 258.37,331.69 257.16,332.48 C250.16,337.08 216.45,361.03 206.91,368.26 C203.42,370.98 191.51,381.25 186.43,385.91 C179.24,392.78 172.76,399.51 164.83,408.38 C158.27,415.89 152.24,424.63 149.34,429.74 C146.58,434.64 140.69,448.01 139.98,452.33 C139.48,455.60 140.32,461.29 141.57,464.01 C142.82,466.61 146.34,470.43 148.82,471.73 C151.31,472.98 156.75,474.19 161.52,474.74 C166.17,475.23 190.12,472.63 191.06,472.55 C194.54,472.27 199.60,472.60 201.20,473.25 C203.19,474.13 205.49,476.09 206.41,477.90 C207.61,480.32 208.82,486.81 209.77,490.83 C210.23,492.72 211.67,495.88 212.97,497.84 C214.02,499.37 216.86,501.19 218.84,501.84 C220.34,502.28 225.61,502.07 228.89,501.26 C234.63,499.79 245.88,494.21 251.14,490.68 C257.09,486.66 269.35,477.14 275.20,472.48 C288.81,461.24 300.57,449.95 302.21,448.37 C302.21,448.37 301.56,448.35 301.56,448.35" fill="none" stroke="rgb(102, 55, 61)" stroke-width="44.71" stroke-opacity="1.00" stroke-linejoin="round"/>
<path d="M371.79,482.06 C373.87,483.60 375.02,484.55 375.94,485.58 C377.83,487.73 380.93,491.95 382.28,494.75 C383.51,497.34 386.18,505.73 386.20,505.81 C386.73,508.42 386.34,520.38 386.30,521.52" fill="none" stroke="rgb(102, 55, 61)" stroke-width="44.71" stroke-opacity="1.00" stroke-linejoin="round"/>
<path d="M366.92,480.24 C366.75,480.97 366.58,481.55 365.82,483.97 C363.60,491.02 356.52,505.74 353.38,510.41 C351.57,513.06 348.04,517.15 346.46,518.60" fill="none" stroke="rgb(102, 55, 61)" stroke-width="44.71" stroke-opacity="1.00" stroke-linejoin="round"/>
<path d="M544.18,477.72 C545.97,479.19 550.01,484.91 551.23,486.83 C555.33,493.32 560.40,504.99 561.21,508.19 C561.42,509.02 561.98,512.27 562.16,513.24" fill="none" stroke="rgb(102, 55, 61)" stroke-width="44.71" stroke-opacity="1.00" stroke-linejoin="round"/>
<path d="M536.68,483.95 C535.80,486.83 535.34,488.25 534.61,490.28 C530.88,500.61 527.47,509.00 526.23,511.70 C525.40,513.48 524.11,516.09 523.35,517.55" fill="none" stroke="rgb(102, 55, 61)" stroke-width="44.71" stroke-opacity="1.00" stroke-linejoin="round"/>
<path d="M387.80,255.77 C387.00,258.37 385.42,261.43 382.23,266.39 C380.16,269.55 377.61,272.48 374.86,274.91 C372.24,277.17 368.62,279.67 365.26,281.49 C360.88,283.84 355.55,285.94 351.85,286.75 C346.96,287.78 335.10,288.20 328.11,287.28 C315.74,285.59 304.00,284.47 296.32,285.33 C292.50,285.81 286.94,287.42 282.61,289.50 C278.70,291.42 272.85,295.84 270.69,297.97 C268.19,300.48 264.53,305.32 263.03,308.54 C260.27,314.56 259.44,321.61 259.30,324.53" fill="none" stroke="rgb(102, 55, 61)" stroke-width="44.71" stroke-opacity="1.00" stroke-linejoin="round"/>
</g>
</svg>
