<?xml version="1.0" standalone="no"?>
<!DOCTYPE svg PUBLIC "-//W3C//DTD SVG 20010904//EN"
 "http://www.w3.org/TR/2001/REC-SVG-20010904/DTD/svg10.dtd">
<svg version="1.0" xmlns="http://www.w3.org/2000/svg"
 width="2416.000000pt" height="2664.000000pt" viewBox="0 0 2416.000000 2664.000000"
 preserveAspectRatio="xMidYMid meet">

<g transform="translate(0.000000,2664.000000) scale(0.100000,-0.100000)"
fill="#000000" stroke="none">
<path d="M15855 26485 c-79 -17 -138 -41 -202 -81 -29 -19 -82 -40 -118 -49
-138 -32 -267 -115 -425 -274 -278 -279 -722 -897 -1107 -1541 -367 -613 -743
-1422 -948 -2037 l-48 -143 -296 0 c-694 0 -1355 -106 -2066 -332 -875 -277
-1773 -766 -2475 -1347 -730 -604 -1311 -1322 -1710 -2111 -335 -664 -543
-1403 -575 -2045 -12 -253 -13 -335 -4 -529 36 -801 285 -1650 693 -2361 166
-289 383 -605 594 -865 268 -329 657 -745 790 -845 28 -21 52 -44 52 -50 0
-25 -33 -55 -68 -60 -152 -26 -402 -100 -594 -175 -211 -84 -539 -247 -670
-334 l-27 -18 -11 44 c-57 220 -121 396 -216 597 -214 449 -574 905 -974 1232
-350 286 -616 403 -950 416 -481 19 -812 -132 -972 -444 -38 -72 -46 -82 -80
-93 -21 -6 -64 -31 -94 -57 -52 -42 -58 -44 -83 -33 -79 37 -475 151 -696 200
-153 35 -423 39 -565 10 -162 -33 -349 -108 -484 -195 -308 -197 -693 -673
-886 -1096 -98 -213 -200 -554 -235 -784 -22 -140 -30 -427 -16 -554 47 -432
236 -860 545 -1234 112 -137 324 -349 416 -418 120 -90 523 -350 665 -430 457
-256 992 -429 1480 -480 228 -24 651 -12 823 22 30 6 55 9 58 7 2 -3 -15 -87
-37 -189 -215 -976 -207 -1916 26 -2824 180 -704 594 -1472 1124 -2084 669
-775 1738 -1507 2841 -1948 1656 -662 3591 -820 5717 -468 1101 183 2001 441
2858 820 1296 573 2305 1394 2988 2432 282 429 463 841 586 1338 215 863 122
1976 -245 2938 -19 49 -34 92 -34 96 0 4 21 4 48 0 136 -23 281 -6 507 59 77
22 266 75 420 117 633 173 1091 356 1455 581 347 215 656 503 858 801 149 220
280 515 356 803 113 430 123 958 25 1430 -119 577 -436 1037 -862 1251 -312
157 -635 194 -1006 113 -396 -85 -715 -263 -1108 -620 l-62 -56 -30 65 c-86
192 -241 356 -416 444 -113 57 -314 103 -450 103 -419 0 -884 -249 -1296 -693
-365 -393 -590 -756 -726 -1168 l-48 -145 -105 71 c-284 194 -467 286 -819
411 -8 3 31 32 95 70 580 349 1072 817 1438 1369 136 205 183 286 292 509 243
494 412 1065 493 1671 31 231 42 402 41 693 0 478 -60 931 -184 1374 l-24 87
82 47 c510 296 737 843 611 1472 -54 265 -190 592 -343 822 -209 314 -565 658
-852 824 -47 27 -87 51 -89 53 -2 1 27 37 65 78 127 140 314 368 448 545 252
335 438 635 611 985 227 458 343 818 346 1067 1 45 9 115 19 153 49 187 27
336 -73 487 -54 83 -506 535 -668 669 -688 568 -1640 1192 -2364 1549 -529
260 -801 336 -1030 285z m459 -1279 c429 -213 716 -378 1134 -653 572 -377
1029 -726 1324 -1012 102 -98 128 -129 128 -151 0 -39 -49 -196 -104 -335
-237 -593 -675 -1235 -1206 -1765 -108 -107 -263 -260 -346 -340 -93 -89 -166
-169 -190 -207 -21 -34 -43 -62 -48 -62 -6 -1 -20 8 -32 20 -22 20 -23 20 -91
4 -37 -9 -88 -15 -113 -13 l-45 3 5 105 c3 58 5 174 5 258 l0 152 58 0 c90 0
193 27 302 80 217 105 362 275 431 505 35 118 37 288 6 406 -68 257 -272 475
-532 569 -225 83 -442 89 -652 19 -157 -51 -266 -117 -387 -233 -183 -176
-270 -401 -258 -671 10 -229 81 -425 205 -563 l30 -32 -29 -87 c-16 -48 -39
-134 -52 -191 -26 -123 -11 -121 -202 -38 -153 66 -290 141 -488 267 -193 123
-302 205 -402 304 -45 44 -163 144 -262 222 -100 79 -195 159 -213 180 -40 45
-77 124 -86 180 -5 32 -12 44 -30 50 l-23 8 68 180 c327 865 757 1654 1375
2520 168 236 365 485 383 485 3 0 155 -74 337 -164z m466 -2925 c166 -66 243
-204 190 -343 -37 -98 -93 -149 -246 -224 l-134 -66 -33 28 c-82 69 -185 83
-292 39 -33 -14 -61 -25 -62 -25 0 0 -7 32 -13 72 -18 107 -9 242 22 309 46
101 141 182 258 221 76 25 232 20 310 -11z m-3825 -1001 l51 0 63 -80 c69 -87
146 -145 235 -179 46 -17 78 -44 203 -169 274 -276 528 -454 908 -638 371
-179 648 -280 1010 -369 121 -29 245 -59 276 -65 65 -13 69 -18 69 -120 1
-160 52 -500 96 -642 78 -248 230 -581 347 -760 172 -264 417 -504 669 -657
105 -64 237 -128 319 -154 206 -68 578 -151 731 -163 60 -5 81 -11 88 -24 28
-52 117 -417 149 -606 140 -839 7 -1767 -364 -2541 -169 -352 -359 -617 -649
-909 -297 -298 -551 -482 -916 -663 -173 -85 -264 -123 -455 -188 -399 -136
-784 -205 -1733 -313 -358 -41 -553 -68 -697 -96 -99 -20 -125 -19 -685 46
-867 101 -1044 120 -1570 169 -294 28 -580 55 -635 61 -230 25 -1478 178
-1510 185 -11 3 -35 25 -53 49 -18 25 -123 137 -232 250 -750 776 -1159 1354
-1413 1996 -343 867 -395 1730 -154 2570 448 1559 1745 2898 3477 3590 699
279 1539 442 2189 424 74 -2 157 -4 186 -4z m4948 -1224 c39 -63 120 -135 282
-251 201 -144 422 -373 538 -556 51 -80 130 -242 161 -329 77 -214 75 -395 -6
-522 -42 -67 -108 -120 -108 -88 0 6 -36 83 -79 173 -264 541 -586 1039 -929
1435 -35 41 -62 78 -60 83 3 8 154 97 168 98 3 1 18 -19 33 -43z m-992 -801
c138 -156 322 -403 449 -600 82 -128 210 -348 205 -353 -8 -8 -221 111 -285
158 -205 152 -422 462 -464 663 -23 112 -56 281 -56 290 0 8 61 -56 151 -158z
m-12290 -6683 c262 -133 668 -562 903 -952 77 -127 119 -217 217 -465 81 -204
142 -317 203 -374 l25 -24 -117 -122 c-400 -414 -752 -915 -1026 -1462 -64
-129 -67 -132 -91 -123 -14 5 -72 20 -128 32 -97 21 -125 22 -572 23 -411 0
-482 2 -565 18 -323 62 -657 184 -937 343 -180 102 -238 144 -359 256 -61 57
-167 155 -236 219 -385 357 -569 640 -597 915 -24 238 44 528 196 827 164 323
328 505 506 559 124 37 272 21 802 -87 265 -54 440 -59 560 -16 159 57 255
178 272 344 l6 59 91 -7 c105 -7 228 6 342 37 157 42 189 47 305 45 116 -2
117 -2 200 -45z m17809 -212 c193 -31 331 -181 424 -460 57 -173 81 -315 92
-562 15 -341 -50 -668 -191 -947 -228 -452 -663 -752 -1470 -1014 -77 -25
-282 -84 -455 -132 -477 -130 -606 -171 -716 -225 -87 -42 -112 -61 -172 -125
l-71 -76 -37 68 c-212 386 -424 709 -663 1013 -136 172 -178 222 -378 441
l-152 167 85 258 c126 385 235 590 474 889 216 270 424 450 597 517 100 39 93
52 99 -177 5 -216 61 -366 186 -500 146 -156 297 -183 491 -88 57 28 94 58
177 142 78 79 154 141 295 241 265 187 362 247 580 355 369 182 607 246 805
215z m-13486 -1095 c225 -41 1115 -154 1541 -194 937 -90 1227 -120 1795 -186
801 -92 1040 -117 1495 -155 198 -16 410 -34 470 -40 270 -25 537 -41 925 -54
137 -5 383 9 490 28 89 16 211 50 292 82 34 13 51 15 58 8 8 -8 -6 -20 -47
-40 -31 -16 -134 -80 -228 -143 -246 -165 -399 -234 -685 -306 -231 -58 -612
-127 -860 -154 -52 -6 -250 -29 -440 -51 -713 -81 -1022 -102 -1555 -101 -524
0 -843 22 -1122 75 -98 19 -281 49 -408 66 -587 80 -938 149 -1234 245 -141
46 -209 75 -491 213 -246 120 -368 202 -362 244 6 33 63 178 137 346 52 117
71 152 83 147 8 -3 74 -16 146 -30z m-1261 -657 c9 -191 45 -329 131 -495 47
-91 72 -124 242 -315 290 -325 566 -519 969 -678 284 -113 556 -179 1150 -280
358 -61 510 -77 805 -85 113 -4 255 -10 315 -15 559 -46 1261 -36 1805 25 130
15 366 49 422 61 32 6 29 18 53 -226 8 -91 33 -282 55 -425 21 -143 46 -316
55 -385 8 -69 23 -171 32 -228 15 -98 15 -107 -2 -160 -82 -262 72 -496 367
-556 158 -33 322 -16 813 80 442 87 838 181 995 236 123 44 288 127 382 195
96 68 221 188 267 256 l32 48 57 -52 c31 -29 75 -65 96 -81 91 -66 209 -15
327 141 142 186 214 445 189 678 -29 277 -166 674 -339 977 -93 165 -164 258
-296 392 -118 119 -263 228 -342 256 -18 7 -33 16 -33 21 0 5 23 34 51 65 80
90 143 230 183 408 30 131 36 149 52 146 49 -10 250 -90 347 -139 377 -192
826 -585 1287 -1128 492 -580 927 -1379 1125 -2070 114 -399 164 -727 172
-1136 7 -333 -11 -521 -73 -789 -112 -479 -320 -886 -688 -1346 -693 -865
-1693 -1513 -3016 -1955 -520 -173 -1020 -298 -1618 -404 -694 -124 -1171
-174 -1857 -195 -1527 -47 -2946 255 -4110 873 -933 496 -1672 1138 -2129
1851 -146 227 -312 544 -394 751 -206 521 -316 1209 -284 1776 19 330 64 628
148 969 91 368 221 708 416 1080 367 702 820 1251 1383 1675 106 79 434 303
446 304 3 1 9 -54 12 -121z m8127 -1283 c24 -72 83 -224 132 -340 50 -115 103
-246 120 -290 28 -75 198 -571 198 -579 0 -1 -26 2 -57 7 -32 6 -130 10 -218
11 -161 0 -274 -13 -465 -54 -215 -47 -953 -213 -1022 -230 -42 -11 -83 -20
-91 -20 -11 0 -16 21 -20 84 -22 281 -120 636 -256 930 -46 100 -47 98 34 117
138 33 606 198 860 304 184 77 430 196 595 288 l115 64 16 -81 c10 -45 36
-140 59 -211z"/>
<path d="M9925 17785 c-168 -37 -276 -96 -400 -220 -103 -102 -157 -194 -197
-331 -19 -66 -23 -102 -22 -214 0 -124 2 -142 31 -223 53 -150 140 -272 268
-372 239 -188 570 -236 845 -122 81 33 271 156 333 216 61 57 135 178 163 266
38 117 44 280 16 393 -42 164 -132 302 -273 415 -171 139 -366 208 -583 206
-66 0 -148 -7 -181 -14z"/>
<path d="M14265 17746 c-161 -43 -272 -104 -384 -210 -192 -183 -265 -447
-191 -691 12 -38 33 -89 46 -113 14 -23 38 -73 53 -111 16 -38 49 -98 74 -133
80 -113 157 -170 300 -219 71 -25 97 -29 193 -29 138 0 234 23 361 86 326 161
523 443 523 749 0 313 -202 575 -512 666 -56 16 -108 22 -223 25 -134 4 -159
2 -240 -20z"/>
<path d="M12221 15859 c-121 -61 -174 -191 -122 -304 35 -79 154 -155 240
-155 159 0 281 161 237 312 -45 154 -207 221 -355 147z"/>
<path d="M10353 14430 c-93 -19 -180 -85 -229 -172 -27 -49 -29 -61 -29 -153
0 -116 19 -166 89 -236 66 -67 134 -94 236 -94 73 0 93 4 142 28 188 92 245
327 122 500 -69 96 -212 151 -331 127z"/>
<path d="M14257 14166 c-140 -39 -237 -181 -224 -326 6 -64 47 -154 100 -215
108 -125 309 -141 431 -33 145 127 147 321 7 480 -76 86 -205 125 -314 94z"/>
<path d="M11036 14059 c-63 -15 -155 -70 -193 -113 -20 -23 -47 -66 -62 -96
-22 -47 -26 -68 -26 -150 0 -82 4 -103 27 -153 35 -73 116 -155 193 -193 53
-26 71 -29 150 -29 75 0 98 4 140 25 67 33 145 112 181 185 26 55 29 69 29
165 0 96 -2 110 -30 163 -38 76 -118 149 -192 177 -66 25 -162 33 -217 19z"/>
<path d="M13622 13932 c-178 -64 -260 -268 -177 -438 30 -61 104 -132 173
-165 62 -31 163 -37 230 -15 206 69 266 378 104 540 -85 86 -218 118 -330 78z"/>
<path d="M12889 13677 c-103 -29 -191 -105 -237 -206 -58 -126 -22 -265 97
-369 114 -99 145 -102 404 -31 47 13 111 69 140 123 17 32 22 58 22 121 0 112
-29 168 -132 260 -114 100 -197 129 -294 102z"/>
<path d="M11993 13583 c-61 -21 -136 -92 -163 -155 -67 -151 18 -361 172 -429
147 -64 325 4 391 150 33 71 30 179 -6 253 -35 72 -128 160 -193 182 -58 20
-145 19 -201 -1z"/>
<path d="M11405 8326 c-187 -37 -345 -124 -476 -263 -114 -122 -173 -237 -209
-414 -18 -88 -21 -126 -17 -244 6 -160 20 -222 78 -343 71 -147 180 -232 309
-240 65 -5 65 -5 101 -54 20 -27 73 -89 118 -138 67 -74 95 -96 160 -128 100
-50 192 -67 326 -59 202 13 381 83 548 216 402 320 429 958 55 1347 -152 158
-321 251 -558 305 -112 26 -339 34 -435 15z m156 -646 c73 -22 169 -77 217
-123 41 -40 80 -118 88 -177 4 -35 0 -55 -18 -90 -28 -55 -71 -85 -162 -111
-162 -47 -227 -72 -289 -109 -36 -22 -68 -40 -70 -40 -10 0 -96 161 -113 210
-26 81 -24 217 5 293 58 149 175 199 342 147z"/>
<path d="M11630 5650 c-223 -27 -408 -126 -580 -306 -117 -124 -184 -245 -221
-402 -18 -75 -20 -108 -16 -232 3 -93 12 -172 24 -220 18 -74 18 -76 0 -125
-38 -100 -7 -239 83 -370 87 -126 236 -250 357 -295 194 -73 452 -64 683 23
167 63 333 170 461 297 97 97 153 175 210 293 67 140 83 218 82 397 0 138 -3
164 -27 243 -47 156 -120 282 -230 396 -177 183 -411 291 -661 304 -55 3 -129
2 -165 -3z m0 -611 c93 -15 162 -50 234 -119 81 -78 126 -159 126 -228 0 -87
-24 -124 -91 -142 -88 -24 -193 -29 -349 -15 -140 12 -235 12 -343 1 -33 -4
-38 -1 -43 21 -4 13 -4 68 -2 121 6 121 34 186 111 260 105 98 203 126 357
101z"/>
</g>
</svg>
